<svg width="0" height="0" class="hidden">
  <symbol xmlns="http://www.w3.org/2000/svg" viewBox="0 -20 480 480" id="heart">
    <path d="M348 0c-43 .066-83.281 21.04-108 56.223A132.242 132.242 0 00132 0C61.68 0 0 65.426 0 140c0 72.68 41.04 147.535 118.688 216.48a638.51 638.51 0 00117.64 82.625 8.015 8.015 0 007.344 0 638.546 638.546 0 00117.601-82.625C438.961 287.535 480 212.68 480 140 480 65.426 418.32 0 348 0zM240 422.902C210.617 406.688 16 293.406 16 140 16 73.945 70.2 16 132 16c41.867.074 80.46 22.66 101.031 59.129a8.33 8.33 0 0013.938 0C267.539 38.66 306.133 16.074 348 16c61.8 0 116 57.945 116 124 0 153.406-194.617 266.688-224 282.902zm0 0"></path>
  </symbol>
  <symbol xmlns="http://www.w3.org/2000/svg" viewBox="0 0 64 64" id="left-arrow">
    <path d="M54 30H14.101l15.278-14.552a2 2 0 10-2.759-2.897L9.172 29.171A3.978 3.978 0 008 32c0 1.068.417 2.073 1.207 2.862l17.414 16.586c.387.369.883.552 1.379.552a1.999 1.999 0 001.38-3.448L14.038 34H54a2 2 0 000-4z"></path>
  </symbol>
  <symbol xmlns="http://www.w3.org/2000/svg" viewBox="0 -20 464 464" id="heart-fill">
    <path d="M340 0c-44.773.004-86.066 24.164-108 63.2C210.066 24.163 168.773.003 124 0 55.52 0 0 63.52 0 132c0 172 232 292 232 292s232-120 232-292C464 63.52 408.48 0 340 0zm0 0" fill="#ff6243"></path>
    <path d="M32 132C32 68.64 79.55 9.64 140.895 1.152A123.422 123.422 0 00124 0C55.52 0 0 63.52 0 132c0 172 232 292 232 292s6-3.113 16-8.992C195.586 384.184 32 276.449 32 132zm0 0" fill="#ff5023"></path>
  </symbol>
  <symbol xmlns="http://www.w3.org/2000/svg" viewBox="0 0 213.333 213.333" id="loading">
    <path d="M203.636 101.818h-38.788c-5.355 0-9.697 4.342-9.697 9.697s4.342 9.697 9.697 9.697h38.788c5.355 0 9.697-4.342 9.697-9.697s-4.341-9.697-9.697-9.697z" fill="#e68e00"></path>
    <path d="M48.485 101.818H9.697c-5.355 0-9.697 4.342-9.697 9.697s4.342 9.697 9.697 9.697h38.788c5.355 0 9.697-4.342 9.697-9.697s-4.342-9.697-9.697-9.697z" fill="#ffbb4d"></path>
    <path d="M168.378 36.09L140.95 63.518c-3.787 3.786-3.787 9.926 0 13.713a9.664 9.664 0 006.856 2.841 9.66 9.66 0 006.857-2.841l27.428-27.428c3.787-3.786 3.787-9.926 0-13.713-3.786-3.787-9.926-3.787-13.713 0z" fill="#ff9d00"></path>
    <path d="M106.667 169.697c-5.355 0-9.697 4.342-9.697 9.697v19.394c0 5.355 4.342 9.697 9.697 9.697 5.355 0 9.697-4.342 9.697-9.697v-19.394c0-5.355-4.342-9.697-9.697-9.697zm-47.998-23.898l-27.427 27.428a9.696 9.696 0 000 13.713 9.667 9.667 0 006.857 2.84 9.663 9.663 0 006.856-2.84l27.427-27.428a9.696 9.696 0 000-13.713c-3.786-3.787-9.926-3.787-13.713 0z" fill="#ffc466"></path>
    <path d="M106.667 4.848c-5.355 0-9.697 4.342-9.697 9.697v38.788c0 5.355 4.342 9.697 9.697 9.697 5.355 0 9.697-4.342 9.697-9.697V14.545c0-5.355-4.342-9.697-9.697-9.697z" fill="#ffa71a"></path>
    <path d="M44.956 36.09c-3.786-3.787-9.926-3.787-13.713 0a9.696 9.696 0 000 13.713L58.67 77.231a9.664 9.664 0 006.857 2.841 9.662 9.662 0 006.856-2.841c3.787-3.786 3.787-9.926 0-13.713L44.956 36.09z" fill="#ffb133"></path>
  </symbol>
  <symbol xmlns="http://www.w3.org/2000/svg" viewBox="0 0 126.334 126.334" id="mega-ball">
    <circle cx="63.167" cy="63.166" r="61.666" fill="#d988ff"></circle>
    <ellipse cx="63.167" cy="63.166" rx="61.666" ry="47.232" fill="#bf44f2"></ellipse>
    <path d="M120.31 39.977c-5.887-14.487-17.115-26.225-31.248-32.775a23.484 23.484 0 00-3.174 11.813c0 13.03 10.564 23.595 23.596 23.595a23.513 23.513 0 0010.826-2.633zm-114.284 0A23.465 23.465 0 0016.85 42.61c13.031 0 23.596-10.565 23.596-23.595 0-4.306-1.16-8.339-3.174-11.813-14.132 6.55-25.361 18.287-31.246 32.775z" fill="#d988ff"></path>
    <path d="M1.501 63.166c0 34.061 27.609 61.668 61.666 61.668 34.057 0 61.666-27.607 61.666-61.668H1.501z" fill="#fff"></path>
    <path d="M63.167 110.398c34.057 0 61.666-21.148 61.666-47.232H1.501c0 26.084 27.609 47.232 61.666 47.232z" fill="#d8e5ea"></path>
    <path d="M121.718 39.505c-.01-.031-.006-.063-.019-.093-.064-.156-.136-.307-.201-.463-.148-.356-.306-.708-.46-1.061a62.332 62.332 0 00-.834-1.841c-.106-.223-.217-.443-.326-.665a62.76 62.76 0 00-1.14-2.222l-.109-.197A62.912 62.912 0 0095.972 9.207l-.128-.079a62.628 62.628 0 00-2.226-1.281c-.196-.108-.391-.219-.589-.325a63.564 63.564 0 00-1.857-.952c-.327-.162-.652-.326-.982-.483-.168-.08-.33-.167-.499-.246-.032-.015-.066-.012-.098-.025A62.755 62.755 0 0063.167 0a62.771 62.771 0 00-26.428 5.816c-.032.012-.066.01-.098.025-.169.078-.331.166-.499.246-.33.157-.656.321-.983.484-.624.309-1.244.623-1.855.951-.198.107-.394.217-.591.326a64.1 64.1 0 00-2.224 1.28l-.13.08A62.907 62.907 0 007.733 32.913l-.154.281a63.991 63.991 0 00-1.087 2.119c-.127.258-.257.515-.381.776a67.293 67.293 0 00-.773 1.706c-.176.399-.353.797-.521 1.201-.058.14-.123.275-.18.416-.011.027-.007.056-.017.083A62.8 62.8 0 00.001 63.166c0 34.831 28.336 63.168 63.166 63.168s63.166-28.337 63.166-63.168a62.807 62.807 0 00-4.615-23.661zM89.698 9.183c12.756 6.295 22.969 16.975 28.663 30.064a21.811 21.811 0 01-8.878 1.862c-12.184 0-22.096-9.912-22.096-22.095a22.109 22.109 0 012.311-9.831zm-2.722-1.261a25.096 25.096 0 00-2.588 11.093c0 13.837 11.258 25.095 25.096 25.095 3.488 0 6.846-.703 10.005-2.085a59.813 59.813 0 013.807 19.642H3.039a59.818 59.818 0 013.807-19.642 24.773 24.773 0 0010.005 2.085c13.838 0 25.096-11.257 25.096-25.095 0-3.851-.891-7.653-2.588-11.093C46.665 4.761 54.713 3 63.167 3s16.502 1.761 23.809 4.922zM8.87 37.266c.029-.06.055-.122.084-.183a60.562 60.562 0 0127.682-27.9 22.097 22.097 0 012.311 9.832c0 12.183-9.912 22.095-22.096 22.095-3.098 0-6.078-.626-8.877-1.863.289-.666.583-1.328.896-1.981zm54.297 86.068c-32.673 0-59.327-26.184-60.128-58.668h120.256c-.801 32.484-27.455 58.668-60.128 58.668z" fill="#33363a"></path>
    <circle cx="63.167" cy="68.868" r="16.764" fill="#a7bbc1"></circle>
    <circle cx="63.167" cy="63.167" r="16.764" fill="#fff"></circle>
    <path d="M51.313 75.021c-6.547-6.547-6.547-17.16 0-23.709 6.547-6.546 17.162-6.546 23.707 0" fill="#d8e5ea"></path>
    <path d="M63.167 81.432c-4.878 0-9.465-1.9-12.915-5.35-7.121-7.12-7.121-18.708 0-25.83a18.149 18.149 0 0112.915-5.349 18.14 18.14 0 0112.914 5.349c7.12 7.123 7.12 18.71 0 25.83a18.138 18.138 0 01-12.914 5.35zm0-33.529c-4.077 0-7.91 1.587-10.793 4.47-5.951 5.953-5.951 15.637 0 21.588a15.164 15.164 0 0010.793 4.471c4.078 0 7.91-1.588 10.792-4.471 5.951-5.951 5.951-15.635 0-21.588a15.16 15.16 0 00-10.792-4.47z" fill="#33363a"></path>
    <path d="M68.87 68.87a8.07 8.07 0 01-11.404 0A8.065 8.065 0 0168.87 57.467a8.063 8.063 0 010 11.403z" fill="#fff"></path>
    <path d="M57.466 57.467A8.064 8.064 0 0168.87 68.87" fill="#d8e5ea"></path>
    <path d="M63.168 72.725a9.535 9.535 0 01-6.762-2.794c-3.729-3.73-3.728-9.797 0-13.525a9.495 9.495 0 016.762-2.802h.001c2.555 0 4.957.996 6.763 2.802 3.728 3.728 3.728 9.794 0 13.524h-.001a9.536 9.536 0 01-6.763 2.795zm-.001-16.121a6.516 6.516 0 00-4.64 1.923 6.57 6.57 0 000 9.282 6.575 6.575 0 009.283 0c2.558-2.561 2.558-6.724 0-9.282a6.532 6.532 0 00-4.643-1.923zm7.25-33.199h-14.5a1.5 1.5 0 00-1.5 1.5v12.174a1.5 1.5 0 103 0V26.405h4.25v10.674a1.5 1.5 0 103 0V26.405h4.25v10.674a1.5 1.5 0 103 0V24.905a1.5 1.5 0 00-1.5-1.5z" fill="#33363a"></path>
  </symbol>
  <symbol xmlns="http://www.w3.org/2000/svg" viewBox="0 0 127.782 127.782" id="pikachu">
    <path fill="#ffd400" d="M90.685 5.927H64.69L50.365 31.066h11.64l-15.27 31.025 40.129-35.908H73.827z"></path>
    <path fill="#ffb000" d="M59.724 14.642l-9.359 16.424h11.64l-15.27 31.025 30.389-27.193H66.995l7.252-8.715h-.42l9.604-11.541z"></path>
    <path d="M46.734 63.591a1.499 1.499 0 01-1.345-2.162l14.206-28.863h-9.229a1.501 1.501 0 01-1.304-2.242L63.386 5.185a1.502 1.502 0 011.304-.758h25.995a1.5 1.5 0 011.153 2.46L77.027 24.683h9.837a1.499 1.499 0 011 2.618l-40.13 35.908a1.494 1.494 0 01-1 .382zm6.212-34.025h9.059a1.499 1.499 0 011.345 2.162L51.492 55.821l31.446-28.138h-9.111a1.5 1.5 0 01-1.153-2.46l14.81-17.796H65.562L52.946 29.566z" fill="#33363a"></path>
    <path d="M113.1 84.413c0 20.676-22.032 37.441-49.209 37.441-27.178 0-49.209-16.766-49.209-37.441 0-20.68 22.031-45.459 49.209-45.459 27.177 0 49.209 24.78 49.209 45.459z" fill="#fff800"></path>
    <path d="M113.1 84.413c0 20.676-22.032 37.441-49.209 37.441-27.178 0-49.209-16.766-49.209-37.441 0-20.68 22.031-34.928 49.209-34.928 27.177.001 49.209 14.249 49.209 34.928z" fill="#ffd400"></path>
    <path d="M74.37 74.615c0 1.393-4.691 1.643-10.479 1.643s-10.479-.25-10.479-1.643c0-1.395 4.691-5.037 10.479-5.037S74.37 73.22 74.37 74.615z" fill="#fff800"></path>
    <path d="M113.1 84.413c0 20.676-22.032 37.441-49.209 37.441-27.178 0-49.209-16.766-49.209-37.441 0-20.682 6.261 18.34 49.209 18.34S113.1 63.732 113.1 84.413z" fill="#ffb000"></path>
    <path d="M63.891 123.355c-27.961 0-50.709-17.469-50.709-38.941 0-21.27 22.619-46.959 50.709-46.959S114.6 63.144 114.6 84.413c0 21.473-22.748 38.942-50.709 38.942zm0-82.901c-26.428 0-47.709 24.048-47.709 43.959 0 19.818 21.402 35.941 47.709 35.941S111.6 104.232 111.6 84.413c0-19.911-21.282-43.959-47.709-43.959z" fill="#33363a"></path>
    <path d="M9.197 47.273c6.385 10.541 15.331 16.738 23.985 17.811 1.492-10.754-.872-23.232-7.258-33.773C19.539 20.767 10.593 14.57 1.94 13.501c-1.493 10.75.872 23.231 7.257 33.772z" fill="#ffd400"></path>
    <path d="M1.94 13.501c-1.492 10.75.872 23.23 7.258 33.771 6.385 10.541 15.331 16.738 23.985 17.811L1.94 13.501z" fill="#ffb000"></path>
    <path d="M34.587 51.296c-1.041-7.334-3.593-14.514-7.379-20.764-6.417-10.594-15.56-17.344-25.085-18.52a1.497 1.497 0 00-1.669 1.282c-1.611 11.602 1.108 24.27 7.46 34.755 4.339 7.166 9.961 12.622 16.259 15.778a1.499 1.499 0 101.344-2.682c-5.791-2.903-10.99-7.969-15.036-14.651a51.824 51.824 0 01-4.567-9.713c6.1-1 13.157 2.117 12.314-12.987 2.338 2.362 4.503 5.137 6.414 8.292 3.579 5.906 5.99 12.694 6.975 19.631.117.82.879 1.385 1.696 1.274a1.498 1.498 0 001.274-1.695z" fill="#33363a"></path>
    <path d="M118.584 47.273c-6.385 10.541-15.331 16.738-23.985 17.811-1.492-10.754.871-23.232 7.258-33.773 6.386-10.543 15.332-16.74 23.986-17.808 1.491 10.748-.872 23.229-7.259 33.77z" fill="#ffd400"></path>
    <path d="M125.843 13.501c1.491 10.75-.872 23.23-7.259 33.771-6.385 10.541-15.331 16.738-23.985 17.811l31.244-51.582z" fill="#ffb000"></path>
    <path d="M127.328 13.295a1.499 1.499 0 00-1.669-1.282c-9.525 1.176-18.669 7.926-25.086 18.52-3.787 6.253-6.339 13.434-7.378 20.764a1.5 1.5 0 002.97.422c.982-6.934 3.395-13.722 6.974-19.631 1.911-3.155 4.076-5.93 6.414-8.292-.844 15.104 6.214 11.987 12.315 12.987a51.824 51.824 0 01-4.567 9.713c-4.048 6.684-9.247 11.75-15.036 14.651a1.5 1.5 0 101.344 2.682c6.296-3.155 11.918-8.611 16.259-15.778 6.351-10.484 9.071-23.152 7.46-34.756z" fill="#33363a"></path>
    <circle cx="32.889" cy="87.775" r="7.013" fill="#ff1a1a"></circle>
    <path d="M39.902 87.775a7.014 7.014 0 01-14.027 0" fill="#d61d1d"></path>
    <circle cx="94.892" cy="87.775" r="7.014" fill="#ff1a1a"></circle>
    <path d="M101.905 87.775a7.015 7.015 0 01-14.028 0" fill="#d61d1d"></path>
    <path d="M73.528 80.281a1.5 1.5 0 00-1.5 1.5 2.592 2.592 0 01-2.591 2.588h-1.456a2.592 2.592 0 01-2.59-2.588v-1.455c0-.073-.011-.143-.021-.213l3.11-1.556a1.502 1.502 0 00-.671-2.842h-7.837a1.502 1.502 0 00-.671 2.842l3.109 1.556c-.01.07-.021.14-.021.213v1.455a2.591 2.591 0 01-2.589 2.588h-1.457a2.592 2.592 0 01-2.591-2.588 1.5 1.5 0 00-3 0 5.596 5.596 0 005.591 5.588H59.8a5.569 5.569 0 004.09-1.792 5.571 5.571 0 004.091 1.792h1.456a5.596 5.596 0 005.591-5.588 1.5 1.5 0 00-1.5-1.5z" fill="#33363a"></path>
    <path d="M47.729 70.144a8.05 8.05 0 01-8.053 8.051 8.05 8.05 0 01-8.051-8.051 8.052 8.052 0 1116.104 0z" fill="#6d5c4d"></path>
    <circle cx="35.672" cy="67.527" r="3.281" fill="#fff"></circle>
    <path d="M39.676 60.591c-3.245 0-6.113 1.63-7.84 4.111a4.84 4.84 0 00-.286.447 9.489 9.489 0 00-1.425 4.995c0 5.267 4.284 9.551 9.551 9.551 5.268 0 9.553-4.284 9.553-9.551 0-5.268-4.286-9.553-9.553-9.553zm0 16.104a6.56 6.56 0 01-6.047-4.035c.681-.018 1.511-.202 2.44-.394.356-.03.699-.097 1.029-.201.809-.145 1.675-.259 2.577-.259 2.413 0 4.573.814 6.049.854a6.56 6.56 0 01-6.048 4.035z" fill="#33363a"></path>
    <circle cx="35.672" cy="67.527" r="1.779" fill="#fff"></circle>
    <path d="M96.155 70.144a8.049 8.049 0 01-8.051 8.051 8.05 8.05 0 01-8.052-8.051 8.052 8.052 0 1116.103 0z" fill="#6d5c4d"></path>
    <circle cx="84.1" cy="67.527" r="3.28" fill="#fff"></circle>
    <path d="M88.105 60.591c-3.243 0-6.11 1.629-7.837 4.108a4.888 4.888 0 00-.292.455 9.481 9.481 0 00-1.423 4.99c0 5.267 4.285 9.551 9.552 9.551s9.551-4.284 9.551-9.551c-.001-5.268-4.285-9.553-9.551-9.553zm0 16.104a6.562 6.562 0 01-6.048-4.035c.689-.019 1.527-.201 2.471-.397.335-.03.658-.093.97-.189.819-.148 1.693-.268 2.607-.268 2.413 0 4.571.814 6.047.854a6.56 6.56 0 01-6.047 4.035z" fill="#33363a"></path>
    <circle cx="84.101" cy="67.527" r="1.779" fill="#fff"></circle>
  </symbol>
  <symbol xmlns="http://www.w3.org/2000/svg" viewBox="0 0 512 512" id="pokeball">
    <path d="M256 0C114.844 0 0 114.844 0 256s114.844 256 256 256 256-114.844 256-256S397.156 0 256 0z" fill="#303c42"></path>
    <path d="M256 21.333c121.508 0 221.715 92.837 233.483 211.299-17.362 3.845-61.466 11.878-127.904 12.608-5.484-53.704-50.452-95.908-105.579-95.908s-100.095 42.203-105.579 95.908c-66.438-.73-110.542-8.763-127.904-12.608C34.285 114.171 134.492 21.333 256 21.333z" fill="#e53935"></path>
    <circle cx="256" cy="256" r="85.333" fill="#455a64"></circle>
    <path d="M256 490.667C126.604 490.667 21.333 385.396 21.333 256c0-.596.086-1.171.09-1.766 20.31 4.324 64.224 11.547 128.97 12.251 5.357 53.837 50.385 96.181 105.607 96.181s100.25-42.344 105.607-96.181c64.746-.704 108.66-7.927 128.97-12.251.004.595.09 1.169.09 1.766 0 129.396-105.271 234.667-234.667 234.667z" fill="#fff"></path>
    <circle cx="256" cy="256" r="64" fill="#303c42"></circle>
    <circle cx="256" cy="256" r="42.667" fill="#f2f2f2"></circle>
    <path d="M221.777 268.888c0-23.531 19.135-42.667 42.667-42.667 12.215 0 23.169 5.224 30.954 13.475-6.418-15.456-21.643-26.363-39.398-26.363-23.531 0-42.667 19.135-42.667 42.667 0 11.316 4.501 21.548 11.712 29.191a42.4 42.4 0 01-3.268-16.303z" opacity=".2" fill="#fff"></path>
    <linearGradient id="a" gradientUnits="userSpaceOnUse" x1="-45.578" y1="639.555" x2="-23.828" y2="629.414" gradientTransform="matrix(21.3333 0 0 -21.3333 996.333 13791.667)">
      <stop offset="0" stop-color="#fff" stop-opacity=".2"></stop>
      <stop offset="1" stop-color="#fff" stop-opacity="0"></stop>
    </linearGradient>
    <path d="M256 0C114.844 0 0 114.844 0 256s114.844 256 256 256 256-114.844 256-256S397.156 0 256 0z" fill="url(#a)"></path>
    <path d="M444.74 239.997c21.049-2.556 36.18-5.467 44.743-7.365-5.801-58.395-33.158-110.496-73.897-148.387C436.051 119.059 448 159.449 448 202.667c0 12.733-1.298 25.142-3.26 37.33zm45.837 14.237c-10.544 2.245-27.586 5.257-50.467 7.747-26.38 100.717-117.906 175.352-226.777 175.352-61.789 0-117.908-24.186-159.859-63.361C94.217 443.637 169.635 490.667 256 490.667c129.396 0 234.667-105.271 234.667-234.667 0-.596-.086-1.171-.09-1.766z" opacity=".1"></path>
  </symbol>
  <symbol xmlns="http://www.w3.org/2000/svg" viewBox="0 0 126.334 126.334" id="pokeball-1">
    <circle cx="63.167" cy="63.166" r="61.667" fill="#ff1a1a"></circle>
    <ellipse cx="63.167" cy="63.166" rx="61.667" ry="47.232" fill="#d60909"></ellipse>
    <path d="M1.5 63.166c0 34.061 27.609 61.668 61.667 61.668s61.667-27.607 61.667-61.668H1.5z" fill="#fff"></path>
    <path d="M63.167 110.398c34.058 0 61.667-21.148 61.667-47.232H1.5c0 26.084 27.609 47.232 61.667 47.232z" fill="#d8e5ea"></path>
    <path d="M63.167 0C28.336 0 0 28.336 0 63.166c0 34.831 28.336 63.168 63.167 63.168s63.167-28.337 63.167-63.168C126.334 28.336 97.998 0 63.167 0zm0 3c32.673 0 59.328 26.183 60.129 58.666H3.038C3.839 29.183 30.494 3 63.167 3zm0 120.334c-32.673 0-59.328-26.184-60.129-58.668h120.258c-.801 32.484-27.456 58.668-60.129 58.668z" fill="#33363a"></path>
    <circle cx="63.167" cy="68.868" r="16.764" fill="#a7bbc1"></circle>
    <circle cx="63.167" cy="63.167" r="16.764" fill="#fff"></circle>
    <path d="M51.313 75.021c-6.547-6.547-6.546-17.16 0-23.709 6.547-6.546 17.161-6.546 23.707 0" fill="#d8e5ea"></path>
    <path d="M63.167 81.432c-4.878 0-9.465-1.9-12.915-5.35-7.12-7.12-7.12-18.707 0-25.83 7.122-7.12 18.708-7.12 25.829 0a18.15 18.15 0 015.351 12.916c0 4.878-1.9 9.465-5.351 12.915a18.143 18.143 0 01-12.914 5.349zm0-33.522a15.214 15.214 0 00-10.793 4.463c-5.95 5.953-5.95 15.637 0 21.588a15.164 15.164 0 0010.793 4.471 15.16 15.16 0 0010.792-4.471 15.165 15.165 0 004.472-10.793c0-4.077-1.588-7.91-4.472-10.794a15.21 15.21 0 00-10.792-4.464z" fill="#33363a"></path>
    <path d="M68.871 68.87c-3.149 3.146-8.257 3.146-11.404 0a8.064 8.064 0 1111.404 0z" fill="#fff"></path>
    <path d="M57.467 57.467A8.063 8.063 0 0168.871 68.87" fill="#d8e5ea"></path>
    <path d="M63.168 72.725a9.534 9.534 0 01-6.762-2.794c-3.729-3.73-3.729-9.797 0-13.525a9.494 9.494 0 016.761-2.802c2.555 0 4.957.996 6.763 2.802 3.728 3.727 3.728 9.794.001 13.524l-.001.001a9.535 9.535 0 01-6.762 2.794zm-.001-16.121a6.516 6.516 0 00-4.64 1.923 6.57 6.57 0 000 9.282c2.558 2.557 6.723 2.557 9.283 0a6.573 6.573 0 00-.001-9.282 6.528 6.528 0 00-4.642-1.923z" fill="#33363a"></path>
  </symbol>
  <symbol xmlns="http://www.w3.org/2000/svg" viewBox="0 0 127 127" id="pokedex">
    <path d="M103.515 15.271h-12.08v-6.12A7.651 7.651 0 0083.783 1.5H43.222a7.652 7.652 0 00-7.656 7.651v6.12h-12.08c-8.338 0-15.1 6.758-15.1 15.1v80.027c0 8.338 6.762 15.102 15.1 15.102h80.029c8.34 0 15.1-6.764 15.1-15.102V30.371c-.001-8.342-6.761-15.1-15.1-15.1zm-40.014 84.946c-16.475 0-29.83-13.359-29.83-29.833 0-16.475 13.355-29.829 29.83-29.829s29.832 13.354 29.832 29.829c0 16.473-13.357 29.833-29.832 29.833z" fill="#d8e5ea"></path>
    <path d="M103.515 29.525h-12.08v-6.119a7.654 7.654 0 00-7.652-7.653H43.222a7.654 7.654 0 00-7.656 7.653v6.119h-12.08c-8.338 0-15.1 6.762-15.1 15.098v65.775c0 8.338 6.762 15.102 15.1 15.102h80.029c8.34 0 15.1-6.764 15.1-15.102V44.623c-.001-8.336-6.761-15.098-15.1-15.098zM93.333 84.639c0 16.475-13.357 29.831-29.832 29.831s-29.83-13.356-29.83-29.831c0-2.461.33-4.84.893-7.127-.562-2.289-.893-4.666-.893-7.128 0-16.475 13.355-29.829 29.83-29.829s29.832 13.354 29.832 29.829c0 2.462-.332 4.839-.893 7.128.561 2.287.893 4.666.893 7.127z" fill="#c5d7dd"></path>
    <circle cx="63.501" cy="73.184" r="32.959" fill="#ff8f8f"></circle>
    <path d="M96.46 73.184c0 13.943-14.756 25.248-32.959 25.248S30.542 87.127 30.542 73.184c0-13.94 14.756-25.244 32.959-25.244S96.46 59.244 96.46 73.184z" fill="#ff1a1a"></path>
    <path d="M30.542 73.184c0 18.205 14.756 32.961 32.959 32.961S96.46 91.389 96.46 73.184H30.542z" fill="#fff"></path>
    <path d="M63.501 98.432c18.203 0 32.959-11.305 32.959-25.248H30.542c0 13.943 14.756 25.248 32.959 25.248z" fill="#d8e5ea"></path>
    <path d="M97.96 73.184c0-19-15.458-34.457-34.459-34.457S29.042 54.184 29.042 73.184c0 18.499 14.652 33.634 32.959 34.423v8.271a1.5 1.5 0 103 0v-8.271c18.307-.789 32.959-15.925 32.959-34.423zM63.501 41.727c16.844 0 30.635 13.305 31.421 29.957H32.08c.786-16.652 14.577-29.957 31.421-29.957zm0 62.918c-16.844 0-30.635-13.307-31.421-29.961h62.842c-.786 16.653-14.577 29.961-31.421 29.961zm43.603-2h-9.623a1.5 1.5 0 110-3h9.623a1.5 1.5 0 110 3zm0 5.857h-9.623a1.5 1.5 0 110-3h9.623a1.5 1.5 0 110 3zm0 5.855h-9.623a1.5 1.5 0 110-3h9.623a1.5 1.5 0 110 3z" fill="#33363a"></path>
    <path d="M103.515 13.771h-10.58v-4.62C92.935 4.105 88.829 0 83.782 0h-40.56c-5.049 0-9.156 4.105-9.156 9.151v4.62h-10.58c-9.153 0-16.6 7.447-16.6 16.6v80.027c0 9.154 7.447 16.602 16.6 16.602h80.029c9.153 0 16.6-7.447 16.6-16.602V30.371c-.001-9.153-7.448-16.6-16.6-16.6zm13.599 96.627c0 7.5-6.101 13.602-13.6 13.602H65.001v-1.627a1.5 1.5 0 10-3 0V124H23.485c-7.499 0-13.6-6.102-13.6-13.602V30.371c0-7.499 6.101-13.6 13.6-13.6h12.08a1.5 1.5 0 001.5-1.5v-6.12C37.065 5.759 39.827 3 43.222 3h40.561a6.158 6.158 0 016.152 6.151v6.12a1.5 1.5 0 001.5 1.5h12.08c7.499 0 13.6 6.101 13.6 13.6v80.027z" fill="#33363a"></path>
    <circle cx="26.312" cy="36.432" r="6.403" fill="#a7bbc1"></circle>
    <circle cx="26.312" cy="33.255" r="6.403" fill="#93ff5a"></circle>
    <path d="M21.784 37.783a6.404 6.404 0 019.055-9.056" fill="#65e529"></path>
    <path d="M26.313 41.154a7.881 7.881 0 01-5.588-2.31c-3.082-3.081-3.082-8.095-.001-11.177 3.083-3.08 8.096-3.081 11.176 0 1.494 1.493 2.316 3.478 2.316 5.589s-.823 4.096-2.316 5.588a7.88 7.88 0 01-5.587 2.31zm-.001-12.799a4.896 4.896 0 00-3.468 1.433 4.91 4.91 0 000 6.934 4.912 4.912 0 006.934 0 4.867 4.867 0 001.437-3.467c0-1.31-.51-2.541-1.437-3.467a4.886 4.886 0 00-3.466-1.433z" fill="#33363a"></path>
    <circle cx="63.5" cy="76.96" r="10.898" fill="#a7bbc1"></circle>
    <circle cx="63.5" cy="73.256" r="10.899" fill="#fff"></circle>
    <path d="M55.794 80.963c-4.254-4.256-4.254-11.158 0-15.414 4.258-4.256 11.158-4.256 15.412 0" fill="#d8e5ea"></path>
    <path d="M63.501 85.647a12.37 12.37 0 01-8.768-3.623c-4.833-4.836-4.833-12.701-.001-17.536 2.343-2.342 5.457-3.631 8.769-3.631s6.424 1.29 8.765 3.631c2.342 2.342 3.632 5.455 3.632 8.768s-1.29 6.427-3.633 8.768a12.354 12.354 0 01-8.764 3.623zm0-21.79c-2.51 0-4.871.978-6.647 2.752-3.663 3.665-3.663 9.628 0 13.293 3.666 3.663 9.628 3.661 13.291 0 1.776-1.775 2.754-4.136 2.754-6.646s-.978-4.871-2.754-6.646a9.327 9.327 0 00-6.644-2.753z" fill="#33363a"></path>
  </symbol>
  <symbol xmlns="http://www.w3.org/2000/svg" viewBox="0 0 64 64" id="right-arrow">
    <path d="M37.379 12.552a2 2 0 10-2.758 2.897L49.963 30H10a2 2 0 000 4h39.899L34.621 48.552a2 2 0 102.758 2.896l17.449-16.62C55.584 34.073 56 33.069 56 32s-.416-2.073-1.207-2.862z"></path>
  </symbol>
  <symbol xmlns="http://www.w3.org/2000/svg" viewBox="0 0 451 451" id="search">
    <path d="M447.05 428l-109.6-109.6c29.4-33.8 47.2-77.9 47.2-126.1C384.65 86.2 298.35 0 192.35 0 86.25 0 .05 86.3.05 192.3s86.3 192.3 192.3 192.3c48.2 0 92.3-17.8 126.1-47.2L428.05 447c2.6 2.6 6.1 4 9.5 4s6.9-1.3 9.5-4c5.2-5.2 5.2-13.8 0-19zM26.95 192.3c0-91.2 74.2-165.3 165.3-165.3 91.2 0 165.3 74.2 165.3 165.3s-74.1 165.4-165.3 165.4c-91.1 0-165.3-74.2-165.3-165.4z"></path>
  </symbol>
</svg>